<svg xmlns="http://www.w3.org/2000/svg" viewBox="0 0 27.75 18.5"><defs><style>.a{fill:#00aeef;}</style></defs><path class="a" d="M428.916,357.937a5.48,5.48,0,0,1,3.816,1.85,5.71,5.71,0,0,1,1.619,3.931,5.248,5.248,0,0,1-1.734,4.047,6.115,6.115,0,0,1-4.047,1.734H413.537a6.3,6.3,0,0,1-4.856-2.081,7.139,7.139,0,0,1-2.081-4.856,6.766,6.766,0,0,1,1.734-4.625,6.465,6.465,0,0,1,4.394-2.2,10.3,10.3,0,0,1,3.237-3.469A7.857,7.857,0,0,1,420.475,351a8.442,8.442,0,0,1,8.441,6.937Zm-2.659,3.469h-3.469v-4.625h-4.625v4.625h-3.469l5.781,5.781Z" transform="translate(-406.6 -351)"/></svg>