<svg xmlns="http://www.w3.org/2000/svg" xmlns:xlink="http://www.w3.org/1999/xlink" viewBox="0 0 691.307 443.77"><defs><style>.a,.b,.h,.i,.j,.k,.l,.n,.o,.p,.q,.r{fill-rule:evenodd;}.a{fill:url(#a);}.b{fill:url(#c);}.c,.p{fill:#f65a6f;}.d{fill:#a6d509;}.e{fill:#ffc502;}.f{fill:#cf6dd1;}.g,.r,.t{fill:#fff;}.g{font-size:18.979px;font-family:BodoniMT-Bold, Bodoni MT;font-weight:700;}.h,.m{fill:#dba867;}.i,.s{fill:#fccd95;}.j{fill:#62879c;}.k{fill:#283740;}.l{fill:#87acc2;}.n{fill:#c79a5f;}.o{fill:#4d4d4d;}.q{fill:#fcbf29;}.u{fill:#08445e;}.v{fill:none;stroke:#08445e;stroke-miterlimit:10;}</style><linearGradient id="a" x1="1" y1="0.5" x2="0" y2="0.5" gradientUnits="objectBoundingBox"><stop offset="0" stop-color="#00e7ef" stop-opacity="0"/><stop offset="0.157" stop-color="#00e4ec" stop-opacity="0.031"/><stop offset="0.368" stop-color="#00dde3" stop-opacity="0.125"/><stop offset="0.611" stop-color="#00d2d6" stop-opacity="0.275"/><stop offset="0.874" stop-color="#01c2c4" stop-opacity="0.486"/><stop offset="1" stop-color="#02baba" stop-opacity="0.6"/></linearGradient><linearGradient id="c" x1="1" x2="0" xlink:href="#a"/></defs><g transform="translate(-27.223 -42.201)"><path class="a" d="M393.21,184.3l121.883-29.4L718.53,358.341,584.573,375.666Z"/><path class="a" d="M271.227,221.061l121.883-29.4L596.547,395.1,462.59,412.424Z"/><path class="b" d="M149.407,257.78l121.883-29.4L474.728,431.817,340.771,449.143Z"/><path class="b" d="M27.6,294.607l121.883-29.4L352.917,468.645,218.96,485.971Z"/><rect class="c" width="121.883" height="29.399" transform="translate(27.223 266.181)"/><rect class="d" width="121.883" height="29.399" transform="translate(149.106 229.432)"/><rect class="e" width="121.883" height="29.399" transform="translate(270.989 192.683)"/><rect class="f" width="121.883" height="29.399" transform="translate(392.873 155.933)"/><text class="g" transform="translate(88.165 289.436)"><tspan x="-42.777" y="0">COURCE 1</tspan></text><text class="g" transform="translate(210.048 252.686)"><tspan x="-42.777" y="0">COURCE 2</tspan></text><text class="g" transform="translate(331.933 216.038)"><tspan x="-42.777" y="0">COURCE 3</tspan></text><text class="g" transform="translate(453.814 179.187)"><tspan x="-48.912" y="0">LECTURE 4</tspan></text><path class="h" d="M101.779,152.85,101.1,146.3l.012,0-.091-.747c-.3-2.9-.7-5.77-1.047-8.669l-6.746.815c1.36,11.261,2.391,10.548,3.072,13l-.69,4.05-.288,2.662-.816.981a1.106,1.106,0,0,0,.143,1.561h0a1.081,1.081,0,0,0,.342.193l-.1.787a1.108,1.108,0,0,0,.931,1.262h0a1.119,1.119,0,0,0,1.262-.931l.112-.9a1.131,1.131,0,0,0,.55-.538l1.844-3.1,1.8-2.355-.061.011A2.121,2.121,0,0,0,101.779,152.85Z"/><path class="i" d="M101.432,152.377l-.682-6.548h.013l-.09-.747c-.314-3.008-.695-5.741-1.048-8.669l-6.747.816c1.36,11.259,2.979,13.389,3.058,13.807l-.676,3.241-.287,2.663-.816.981a1.107,1.107,0,0,0,.142,1.561h0a1.094,1.094,0,0,0,.343.193l-.1.787a1.105,1.105,0,0,0,.931,1.261h0a1.115,1.115,0,0,0,1.261-.93l.112-.9a1.122,1.122,0,0,0,.551-.537l1.844-3.1,1.8-2.355-.061.01A2.113,2.113,0,0,0,101.432,152.377Z"/><path class="j" d="M97.815,119.306l3.745,25.206-7.433,2.358-5.98-17.082C82.474,113.584,96.97,113.619,97.815,119.306Z"/><path class="j" d="M116.542,103.718,95.577,125.651l-8.153-6,13.232-18.239C112.713,84.8,121.293,98.747,116.542,103.718Z"/><path class="j" d="M101.1,144.659l-6.969,2.211-5.98-17.082c-.981-2.754-2.747-6.066-.723-10.133,2.995-6.016,13.708-20.772,17.96-22.919-2.662,3.251-15.99,22.46-15.41,27.839.566,5.258,6.375,19.806,6.375,19.806Z"/><path class="k" d="M151.459,210.782c-1.231,2.459-1.4,11.136-1.011,14.1s.186,4.1,2.737,4.113,3.764-.387,4.086-1.358,5.41.62,7.731.578c4.713-.083,17.024.44,18.326-4.557.578-2.218-3.5-4.121-6.944-4.618-5.865-.845-12.379-2.495-14.141-7.559-.849-2.439.888-4.591-.869-3.166s-3.047,3.912-5.655,3.2S152.2,209.713,151.459,210.782Z"/><path class="l" d="M112.941,159.339l39.447.987c13.323.332,18.092,18.688,3.754,19.066l-39.835,1.05C80.552,181.384,99.632,159.007,112.941,159.339Z"/><path class="l" d="M164.912,174.1l1.263,41.7-15.737.521-3.3-40.506C145.142,151.334,165.074,164.3,164.912,174.1Z"/><path class="j" d="M111.7,159.356l41.705,1.026c3.287.081,11.317,2.937,11.485,9.162l1.24,45.933-15.585.918,12.508-2.5-.707-44.261c-.078-4.87-4.89-6.6-9.747-6.994Z"/><path class="k" d="M87.959,246.366c-1.627,2.289-3.258,10.879-3.367,13.865s-.507,4.1,2.009,4.418,3.779.08,4.261-.844,5.234,1.28,7.531,1.525c4.665.5,16.726,2.53,18.851-2.268.944-2.13-2.759-4.521-6.076-5.437-5.645-1.561-11.8-4-12.684-9.243-.427-2.524,1.65-4.446-.324-3.248s-3.666,3.508-6.12,2.48S88.866,245.4,87.959,246.366Z"/><path class="l" d="M117.857,163.912,109.1,214.026l-19.421-.235L91.4,169.669C92.776,134.343,120.142,150.83,117.857,163.912Z"/><path class="l" d="M109.341,211.814l-7.7,41.347-15.616-1.42,3.552-40.6C91.721,186.592,111.149,202.108,109.341,211.814Z"/><path class="j" d="M118.083,162.674l-16.446,90.487-15.616-1.42,12.249-1.733Z"/><path class="h" d="M103.305,66.028c1.568,14.606,18.695,29.8,31.24,24.761,12.907-5.181,14.514-29.183,4.647-40.466C127.491,36.943,101.41,48.375,103.305,66.028Z"/><path class="h" d="M112.55,75.17l-2.539,16.456c-.823,5.33,7.881,17.1,8.657,12.658l4.8-27.465C124.72,69.626,113.664,67.954,112.55,75.17Z"/><path class="i" d="M106.292,71.447c6.044,12.151,19.649,22.082,29.773,18.017s12.811-20.529,8.518-33.38a29.453,29.453,0,0,0-3.595-5.625c-12.836-15.611-38.954-4.021-35.939,15.92A30.393,30.393,0,0,0,106.292,71.447Z"/><path class="m" d="M140.175,79.147a13.589,13.589,0,0,1-8.413-7.179.487.487,0,0,0-.887.4c1.9,4.164,4.883,6.129,8.838,7.67C140.537,80.361,140.863,79.37,140.175,79.147Z"/><path class="n" d="M108.977,81.107c8.188-5.789,11.577-15.417,17.95-25.3,4.094,4.8,15.748,7.4,22.276,2.491-3.675-2.079-5.579-5.959-8.565-9.563-10.957-13.224-38.159-5.55-38.15,15.688C102.489,69.44,104.913,75.131,108.977,81.107Z"/><path class="h" d="M115.838,64.349c-1.563.324-2.409,2.618-1.89,5.125s2.208,4.277,3.77,3.953,2.409-2.618,1.89-5.126S117.4,64.026,115.838,64.349Z"/><path class="i" d="M116.1,63.377c-1.563.324-2.409,2.618-1.89,5.125s2.208,4.276,3.77,3.952,2.41-2.617,1.891-5.125S117.659,63.053,116.1,63.377Z"/><path class="h" d="M143.995,69.3a2.413,2.413,0,1,0,3.02,1.384A2.352,2.352,0,0,0,143.995,69.3Z"/><path class="i" d="M144.536,67.233a3.234,3.234,0,1,0,4.236,1.784A3.25,3.25,0,0,0,144.536,67.233Z"/><path class="o" d="M137.393,63.386c-.86.527-1.415,2.2-1.24,3.734s1.015,2.354,1.875,1.828,1.414-2.2,1.239-3.733S138.253,62.861,137.393,63.386Z"/><path class="l" d="M97.682,128.259C95.9,140.423,89.775,157.937,89.6,163.11c9.28,3.468,19.216.337,33.252-3.325,1.638-15.777-1.137-47.51-2.835-64.716-3.39-.046-9.319-3.73-9.016-8.423C108.208,88.882,101.536,102,97.682,128.259Z"/><path class="j" d="M123.149,137.791c.176,7.722.555,14.459-.3,21.994-13.536,6.534-23.971,6.793-33.252,3.325,6.43,1.549,23.478-.782,30.9-4.8C121.94,154.961,123.149,137.791,123.149,137.791Z"/><path class="p" d="M120.844,101.874a37.843,37.843,0,0,1,.781,10.992c-.456,3.226-4.078-9.652-2.981-11.795S119.741,98.926,120.844,101.874Z"/><path class="q" d="M120.017,95.069a6.558,6.558,0,0,1,.618,7.215C119.343,104.582,115.62,99.119,120.017,95.069Z"/><path class="r" d="M120.017,95.069c-2.108-.432-8.476-4.772-8.969-9.577a10.232,10.232,0,0,0-1.624,2.818c-.32,6.339,7.626,12.267,9.22,12.761A35.769,35.769,0,0,0,120.017,95.069Z"/><path class="m" d="M144.2,129.33l1.7-3.946c.155-.36.279-.658.276-.665,2.562-4.656,5.109-7.327,6.12-6.89,1.311.565.151,2.3.258,2.693l1.506-.531c2.331-1,2.386,1.431,1.906,1.747.919.743.569,2.12.1,2.28a1.38,1.38,0,0,1,.389,2.078c.706.031,1.042,1.87-.4,2.445l-5,2.018c-3.588,1.431-2.29,1.546-6.475-.295A.711.711,0,0,1,144.2,129.33Z"/><path class="s" d="M144.208,128.561l1.7-3.946c.155-.361.279-.658.276-.665,2.562-4.656,5.108-7.327,6.12-6.89,1.311.565.151,2.3.257,2.693l1.507-.531c2.331-1,2.386,1.431,1.906,1.747.919.743.569,2.12.1,2.28a1.38,1.38,0,0,1,.389,2.078c.706.031,1.042,1.87-.4,2.445l-5,2.018c-3.587,1.431-2.643,1.432-6.475-.295A.711.711,0,0,1,144.208,128.561Z"/><rect class="t" width="4.035" height="8.429" transform="matrix(0.906, -0.423, 0.423, 0.906, 141.791, 125.695)"/><path class="l" d="M121.924,129.788l21.714-5.373,4.327,8.458L132.9,138.894C116.957,145.264,116.289,130.93,121.924,129.788Z"/><path class="j" d="M116.318,104.943l12.291,27.741-8.507,5.174-11.965-19.1C97.238,101.353,113.532,98.656,116.318,104.943Z"/><path class="l" d="M117.162,105.895l12.292,27.74-8.507,5.175-11.965-19.1C98.083,102.305,114.376,99.608,117.162,105.895Z"/><path class="j" d="M143.81,124.871l4.155,8-15.067,6.02c-10.634,4.36-14.682-.782-14.494-3.494,2.021,1.505,3.709.865,4.787,1.514.871.526,1.886.834,4.4.429,5.22-.84,17.088-6.252,17.088-6.252Z"/><path class="j" d="M124.964,137.585l-5.753.29-10.23-18.17c-.872-1.549-3.835-5.549-3.631-8.948.331,3.309,14.762,22.911,16.062,24.575A5.8,5.8,0,0,0,124.964,137.585Z"/><rect class="u" width="45" height="210.231" transform="translate(501 250)"/><rect class="t" width="45" height="170.796" transform="translate(378 289.436)"/><rect class="t" width="45" height="105.116" transform="translate(270.989 355.116)"/><rect class="t" width="45" height="143.231" transform="translate(167.757 317)"/><path class="v" d="M77.933,460.188h498v-300"/><rect class="u" width="553.888" height="1" transform="translate(27.487 348.889) rotate(-18.222)"/><path class="u" d="M571,170.648c-9.08-.344-20.806-2.168-28.815-5.549l9.357,11.943-.449,15.163C555.534,184.732,563.892,176.308,571,170.648Z"/></g></svg>