<svg xmlns="http://www.w3.org/2000/svg" viewBox="0 0 313.123 262.324"><defs><style>.a,.d{fill:#bf8d36;}.b{fill:#242626;opacity:0.2;}.c{fill:#ffce47;}.d,.e{opacity:0.5;}.f,.g,.h{fill:none;}.f,.i{stroke:#242626;}.f,.g,.h,.i{stroke-miterlimit:10;stroke-width:6.284px;}.g{stroke:#bf8d36;}.g,.h{stroke-linecap:round;}.h{stroke:#fff;}.i{fill:#ff2626;}.j{fill:#fff;font-size:72px;font-family:Comfortaa-Regular, Comfortaa;}</style></defs><g transform="translate(-92.064 -119)"><path class="a" d="M226.81,344.564a23.894,23.894,0,1,0,43.648,0Z"/><path class="b" d="M226.81,344.564a23.717,23.717,0,0,0-1.884,12.655h47.416a23.716,23.716,0,0,0-1.884-12.655Z"/><path class="c" d="M316.976,266.8v-42.42a68.543,68.543,0,0,0-68.342-68.342h0a68.543,68.543,0,0,0-68.342,68.342V266.8c0,8.46,2.356,40.063-15.318,40.063h0a18.907,18.907,0,0,0-18.853,18.853h0a18.908,18.908,0,0,0,18.853,18.853h167.32a18.908,18.908,0,0,0,18.853-18.853h0a18.907,18.907,0,0,0-18.853-18.853h0C314.62,306.858,316.976,275.255,316.976,266.8Z"/><path class="d" d="M332.294,306.858c-17.674,0-15.318-31.6-15.318-40.063v-42.42a68.543,68.543,0,0,0-68.342-68.342h0a68.319,68.319,0,0,0-7.65.434c18.379,3.834,32.787,32.906,32.787,67.908V266.8c0,8.46-1.273,40.063,8.276,40.063,5.6,0,10.185,8.483,10.185,18.853h0c0,10.369-4.584,18.853-10.185,18.853h50.247a18.908,18.908,0,0,0,18.853-18.853h0A18.907,18.907,0,0,0,332.294,306.858Z"/><path class="c" d="M248.634,156.033h0a68,68,0,0,1,12.819,1.22,16.889,16.889,0,1,0-25.638,0A68,68,0,0,1,248.634,156.033Z"/><g class="e"><path class="a" d="M248.634,129.386a16.813,16.813,0,0,0-6.03,1.128,16.855,16.855,0,0,1,7.712,25.56,68.006,68.006,0,0,1,11.137,1.179,16.876,16.876,0,0,0-12.819-27.867Z"/></g><path class="f" d="M316.976,266.8v-42.42a68.543,68.543,0,0,0-68.342-68.342h0a68.543,68.543,0,0,0-68.342,68.342V266.8c0,8.46,2.356,40.063-15.318,40.063h0a18.907,18.907,0,0,0-18.853,18.853h0a18.908,18.908,0,0,0,18.853,18.853h167.32a18.908,18.908,0,0,0,18.853-18.853h0a18.907,18.907,0,0,0-18.853-18.853h0C314.62,306.858,316.976,275.255,316.976,266.8Z"/><path class="f" d="M226.81,344.564a23.894,23.894,0,1,0,43.648,0Z"/><path class="f" d="M248.634,156.033h0a68,68,0,0,1,12.819,1.22,16.889,16.889,0,1,0-25.638,0A68,68,0,0,1,248.634,156.033Z"/><path class="g" d="M116.389,374.988a66.1,66.1,0,0,1,0-96.984"/><path class="g" d="M134.158,357.219a41.07,41.07,0,0,1,0-61.446"/><path class="g" d="M116.389,278a66.1,66.1,0,0,0,0,96.984"/><path class="g" d="M134.158,295.773a41.07,41.07,0,0,0,0,61.446"/><path class="g" d="M380.862,374.988a66.1,66.1,0,0,0,0-96.984"/><path class="g" d="M363.093,357.219a41.072,41.072,0,0,0,0-61.446"/><path class="g" d="M380.862,278a66.1,66.1,0,0,1,0,96.984"/><path class="g" d="M363.093,295.773a41.072,41.072,0,0,1,0,61.446"/><path class="h" d="M191.289,224.376A57.279,57.279,0,0,1,213.4,179.157"/><line class="h" y1="30.636" transform="translate(191.289 236.159)"/><path class="h" d="M189.719,293.848a82.234,82.234,0,0,0,1.63-14.948"/><circle class="i" cx="43.34" cy="43.34" r="43.34" transform="translate(276.988 122.697)"/><text class="j" transform="translate(316.957 192)"><tspan x="-22.5" y="0">4</tspan></text></g></svg>