<?xml version="1.0" encoding="UTF-8"?>
<svg xmlns="http://www.w3.org/2000/svg" xmlns:xlink="http://www.w3.org/1999/xlink" width="200pt" height="90pt" viewBox="0 0 200 90" version="1.1">
<g id="surface1">
<path style=" stroke:none;fill-rule:nonzero;fill:rgb(0%,68.235294%,93.72549%);fill-opacity:1;" d="M 6.875 65.59375 C 49.28125 75.480469 192.8125 54.992188 192.8125 54.992188 L 192.8125 44.492188 C 192.8125 44.492188 81.480469 35.007812 6.875 34.90625 Z M 6.875 65.59375 "/>
<path style="fill-rule:nonzero;fill:rgb(0%,68.235294%,93.72549%);fill-opacity:1;stroke-width:11;stroke-linecap:round;stroke-linejoin:round;stroke:rgb(100%,100%,100%);stroke-opacity:1;stroke-miterlimit:10;" d="M 26.882954 6.399257 L 26.882954 18.10048 C 26.250362 17.835901 25.572289 17.686542 24.885946 17.652403 C 24.001144 17.652403 23.153552 18.010865 22.545767 18.655243 C 21.900771 19.303888 21.541061 20.187241 21.545196 21.104733 C 21.627887 22.22706 22.012405 23.302446 22.661536 24.224206 L 23.550473 25.892761 C 25.125753 28.444669 26.010555 31.363573 26.11392 34.359291 C 26.16767 38.178618 24.633736 41.848586 21.880098 44.494377 C 19.089248 47.229783 15.306096 48.71484 11.398906 48.61669 C 9.360552 48.59962 7.347005 48.143008 5.498842 47.276725 L 5.498842 35.473084 C 6.404318 36.147334 7.491716 36.535668 8.62046 36.586877 C 9.587954 36.616748 10.534776 36.300961 11.291406 35.694989 C 11.981883 35.110355 12.391208 34.261141 12.407746 33.356451 C 12.072844 31.935406 11.51054 30.582638 10.733236 29.345091 C 8.996708 26.404849 8.041617 23.072007 7.950656 19.658083 C 7.880368 15.889965 9.368821 12.258403 12.072844 9.63395 C 14.656965 6.924148 18.237522 5.39215 21.983462 5.400684 C 23.653838 5.50737 25.30354 5.844494 26.882954 6.399257 Z M 26.882954 6.399257 " transform="matrix(0.944773,0,0,0.915369,0.519688,0.0915369)"/>
<path style="fill-rule:nonzero;fill:rgb(0%,68.235294%,93.72549%);fill-opacity:1;stroke-width:11;stroke-linecap:round;stroke-linejoin:round;stroke:rgb(100%,100%,100%);stroke-opacity:1;stroke-miterlimit:10;" d="M 39.761003 6.400477 L 39.761003 17.982213 L 44.883763 17.982213 L 44.883763 29.901074 L 39.761003 29.901074 C 39.761003 32.350564 40.095905 33.908166 40.873209 34.800054 C 41.654646 35.691942 42.99012 36.140019 44.999532 36.140019 L 44.999532 48.054612 L 43.659924 48.054612 C 41.133688 48.088752 38.640529 47.474245 36.420252 46.275105 C 34.237188 45.144243 32.368352 43.497024 30.96259 41.487077 C 29.180581 38.922367 28.399143 35.470037 28.399143 31.125819 L 28.399143 6.400477 Z M 39.761003 6.400477 " transform="matrix(0.944773,0,0,0.915369,2.981765,0.195889)"/>
<path style="fill-rule:nonzero;fill:rgb(0%,68.235294%,93.72549%);fill-opacity:1;stroke-width:11;stroke-linecap:round;stroke-linejoin:round;stroke:rgb(100%,100%,100%);stroke-opacity:1;stroke-miterlimit:10;" d="M 48.111425 16.799213 L 59.361651 16.799213 L 59.361651 33.728007 C 59.361651 35.400829 60.027321 36.292717 61.478563 36.292717 C 62.92567 36.292717 63.591339 35.400829 63.591339 33.728007 L 63.591339 16.799213 L 74.841565 16.799213 L 74.841565 33.617054 C 74.911853 37.308359 73.510227 40.875909 70.942645 43.530235 C 68.461889 46.163223 64.980562 47.618408 61.362794 47.541595 C 57.377047 47.652547 53.556683 45.928516 51.00564 42.86452 C 49.000363 40.410762 47.999791 37.069384 47.999791 32.725166 L 47.999791 16.799213 Z M 48.111425 16.799213 " transform="matrix(0.944773,0,0,0.915369,5.088608,1.278771)"/>
<path style="fill-rule:nonzero;fill:rgb(0%,68.235294%,93.72549%);fill-opacity:1;stroke-width:11;stroke-linecap:round;stroke-linejoin:round;stroke:rgb(100%,100%,100%);stroke-opacity:1;stroke-miterlimit:10;" d="M 96.858598 6.400477 L 108.108824 6.400477 L 108.108824 31.458676 C 108.108824 36.029067 106.884985 39.814254 104.433171 42.707555 C 102.998468 44.452923 101.166843 45.831295 99.087143 46.718915 C 97.086001 47.73029 94.873994 48.263715 92.62891 48.276517 C 88.382684 48.344796 84.285302 46.697578 81.26705 43.710395 C 78.22399 40.821362 76.561884 36.767328 76.698325 32.572469 C 76.681787 28.433087 78.327355 24.460133 81.26705 21.545496 C 84.082707 18.519906 88.047782 16.821479 92.182374 16.86842 C 92.848043 16.86842 93.852749 16.979373 95.188223 17.094593 L 95.188223 29.568216 C 94.427458 28.868362 93.435155 28.471493 92.401507 28.454424 C 91.26036 28.467226 90.172962 28.949442 89.399793 29.790121 C 88.56874 30.609463 88.122204 31.744592 88.175954 32.909594 C 88.188358 34.053258 88.672105 35.141446 89.511427 35.918114 C 90.330077 36.750258 91.462955 37.194068 92.633045 37.142859 C 95.527259 37.142859 96.974367 35.137179 96.974367 31.125819 L 96.974367 6.400477 Z M 96.858598 6.400477 " transform="matrix(0.944773,0,0,0.915369,8.174236,0.195889)"/>
<path style="fill-rule:nonzero;fill:rgb(0%,68.235294%,93.72549%);fill-opacity:1;stroke-width:11;stroke-linecap:round;stroke-linejoin:round;stroke:rgb(100%,100%,100%);stroke-opacity:1;stroke-miterlimit:10;" d="M 140.007377 33.287244 L 122.857087 33.287244 C 122.621416 32.523379 122.47257 31.742444 122.410551 30.948706 C 122.435359 29.920262 122.621416 28.90462 122.968721 27.940186 L 128.649651 27.940186 C 128.203115 25.712601 126.975141 24.598808 124.862365 24.598808 C 123.481411 24.556134 122.17488 25.230384 121.40998 26.382583 C 120.487966 27.722548 120.020757 29.322825 120.070372 30.948706 C 119.98768 32.647133 120.454889 34.328491 121.40998 35.736734 C 122.145938 36.863329 123.402854 37.533311 124.750731 37.520509 C 126.015916 37.452231 127.194275 36.846259 127.979847 35.847687 L 134.438081 43.533282 C 131.60175 45.829146 128.066674 47.08803 124.415829 47.100832 C 120.215083 47.224587 116.142509 45.615776 113.165603 42.645662 C 110.168023 39.72249 108.514186 35.685525 108.601013 31.499201 C 108.514186 27.317145 110.168023 23.284448 113.165603 20.361276 C 116.142509 17.382627 120.202679 15.735409 124.415829 15.79942 C 128.550421 15.697003 132.540303 17.310081 135.442787 20.254591 C 138.40729 23.143623 140.023915 27.142181 139.899877 31.281564 C 140.123145 31.925942 140.164491 32.621529 140.007377 33.287244 Z M 140.007377 33.287244 " transform="matrix(0.944773,0,0,0.915369,11.603761,1.174418)"/>
<path style="fill-rule:nonzero;fill:rgb(0%,68.235294%,93.72549%);fill-opacity:1;stroke-width:11;stroke-linecap:round;stroke-linejoin:round;stroke:rgb(100%,100%,100%);stroke-opacity:1;stroke-miterlimit:10;" d="M 167.84351 46.541802 L 156.593284 46.541802 L 156.593284 29.613009 C 156.593284 27.829234 155.92348 27.048299 154.476372 27.048299 C 153.029265 27.048299 152.359461 27.940186 152.359461 29.613009 L 152.359461 46.652755 L 141.001735 46.652755 L 141.001735 29.723961 C 140.931447 26.028389 142.333074 22.465106 144.900656 19.810781 C 147.571603 17.13085 151.234852 15.679933 155.013869 15.807955 C 158.792887 15.93171 162.352771 17.625869 164.837661 20.476496 C 166.838804 22.925986 167.84351 26.267364 167.84351 30.611581 Z M 167.84351 46.541802 " transform="matrix(0.944773,0,0,0.915369,15.086193,1.174418)"/>
<path style="fill-rule:nonzero;fill:rgb(0%,68.235294%,93.72549%);fill-opacity:1;stroke-width:11;stroke-linecap:round;stroke-linejoin:round;stroke:rgb(100%,100%,100%);stroke-opacity:1;stroke-miterlimit:10;" d="M 181.161764 6.400477 L 181.161764 17.982213 L 186.284524 17.982213 L 186.284524 29.901074 L 181.161764 29.901074 C 181.161764 32.350564 181.496666 33.908166 182.273969 34.800054 C 183.055407 35.691942 184.39088 36.135752 186.396158 36.135752 L 186.396158 48.054612 L 185.060684 48.054612 C 182.534448 48.088752 180.041289 47.474245 177.821013 46.275105 C 175.637948 45.144243 173.764978 43.497024 172.359216 41.487077 C 170.577207 38.922367 169.799904 35.470037 169.799904 31.125819 L 169.799904 6.400477 Z M 181.161764 6.400477 " transform="matrix(0.944773,0,0,0.915369,18.183158,0.195889)"/>
<path style="fill-rule:nonzero;fill:rgb(0%,68.235294%,93.72549%);fill-opacity:1;stroke-width:11;stroke-linecap:round;stroke-linejoin:round;stroke:rgb(100%,100%,100%);stroke-opacity:1;stroke-miterlimit:10;" d="M 6.601816 46.201275 L 18.852614 46.201275 L 18.852614 70.700444 C 18.852614 72.590905 19.187516 73.93087 19.741551 74.485632 C 20.411355 75.155615 21.52356 75.488472 23.417204 75.488472 L 24.087008 75.488472 L 24.087008 87.4116 L 20.857891 87.4116 C 16.4008 87.4116 12.948416 86.071635 10.384968 83.511193 C 7.93729 80.95075 6.601816 77.276515 6.601816 72.706125 Z M 6.601816 46.201275 " transform="matrix(0.944773,0,0,0.915369,0.637784,4.341595)"/>
<path style="fill-rule:nonzero;fill:rgb(0%,68.235294%,93.72549%);fill-opacity:1;stroke-width:11;stroke-linecap:round;stroke-linejoin:round;stroke:rgb(100%,100%,100%);stroke-opacity:1;stroke-miterlimit:10;" d="M 74.861003 72.529012 L 86.107095 72.085202 C 85.937576 76.152038 84.180375 79.992703 81.207603 82.77505 C 78.354734 85.561665 74.505428 87.085129 70.515547 87.008316 C 66.302397 87.072327 62.242227 85.425109 59.269455 82.442193 C 56.280145 79.42087 54.634577 75.328429 54.700731 71.082362 C 54.659385 66.972851 56.313222 63.025502 59.265321 60.166341 C 62.180208 57.226099 66.153552 55.578881 70.292279 55.600218 C 73.918316 55.553277 77.440989 56.820696 80.207031 59.163501 C 83.047496 61.45083 84.953543 64.702592 85.553059 68.300014 L 74.079565 68.748092 C 73.223705 67.510544 71.79727 66.797888 70.292279 66.853364 C 69.126324 66.81069 67.99758 67.2545 67.174796 68.078109 C 66.364416 68.957194 65.926149 70.113661 65.950957 71.308534 C 65.913745 72.558884 66.397493 73.766559 67.28643 74.649912 C 68.134021 75.516195 69.304111 75.998412 70.515547 75.98561 C 72.744092 75.87039 74.079565 74.756597 74.861003 72.529012 Z M 74.861003 72.529012 " transform="matrix(0.944773,0,0,0.915369,5.808525,5.320125)"/>
<path style="fill-rule:nonzero;fill:rgb(0%,68.235294%,93.72549%);fill-opacity:1;stroke-width:11;stroke-linecap:round;stroke-linejoin:round;stroke:rgb(100%,100%,100%);stroke-opacity:1;stroke-miterlimit:10;" d="M 104.190609 75.089455 L 104.190609 86.786411 C 103.338883 86.910165 102.483023 86.986979 101.627162 87.008316 C 97.389205 87.157675 93.275285 85.544596 90.265302 82.553145 C 87.24705 79.600101 85.593213 75.52473 85.700712 71.3 C 85.659366 67.122211 87.304934 63.106583 90.265302 60.162074 C 93.17192 57.140751 97.211417 55.484998 101.399759 55.600218 C 106.299251 55.600218 110.086538 57.046868 112.873253 59.833484 C 115.655834 62.731051 117.102941 66.516239 117.102941 71.526172 L 117.102941 86.3426 L 105.860985 86.3426 L 105.860985 72.41806 C 105.951946 71.061025 105.559159 69.72106 104.744645 68.632872 C 103.979745 67.69831 102.834463 67.169152 101.627162 67.181954 C 99.191887 67.241698 97.23209 69.204704 97.170071 71.637125 C 97.170071 72.793591 97.612473 73.911651 98.398045 74.756597 C 99.162945 75.605811 100.271016 76.053888 101.408029 75.981342 C 102.392062 75.908796 103.343018 75.601543 104.190609 75.089455 Z M 104.190609 75.089455 " transform="matrix(0.944773,0,0,0.915369,9.141683,5.320125)"/>
<path style="fill-rule:nonzero;fill:rgb(0%,68.235294%,93.72549%);fill-opacity:1;stroke-width:11;stroke-linecap:round;stroke-linejoin:round;stroke:rgb(100%,100%,100%);stroke-opacity:1;stroke-miterlimit:10;" d="M 130.059964 46.201275 L 130.059964 57.783011 L 135.182724 57.783011 L 135.182724 69.701872 L 130.059964 69.701872 C 130.059964 72.151362 130.394866 73.708965 131.176304 74.600852 C 131.953607 75.488472 133.289081 75.93655 135.294358 75.93655 L 135.294358 87.855411 L 133.958885 87.855411 C 131.432649 87.88955 128.93949 87.275044 126.719213 86.075903 C 124.540283 84.940773 122.667313 83.297823 121.261551 81.283608 C 119.479542 78.723165 118.698104 75.270835 118.698104 70.926617 L 118.698104 46.201275 Z M 130.059964 46.201275 " transform="matrix(0.944773,0,0,0.915369,12.689305,4.341595)"/>
<path style="fill-rule:nonzero;fill:rgb(0%,68.235294%,93.72549%);fill-opacity:1;stroke-width:11;stroke-linecap:round;stroke-linejoin:round;stroke:rgb(100%,100%,100%);stroke-opacity:1;stroke-miterlimit:10;" d="M 152.948095 55.600218 C 161.560451 55.600218 168.543778 62.581692 168.543778 71.193314 C 168.593393 75.39244 166.902344 79.429405 163.863419 82.33124 C 160.919589 85.292819 156.9049 86.940037 152.728961 86.90163 C 148.515812 86.944305 144.468046 85.297086 141.478735 82.33124 C 138.43981 79.429405 136.748762 75.39244 136.798377 71.193314 C 136.703281 66.985654 138.406733 62.931619 141.478735 60.055389 C 144.571411 57.123682 148.689465 55.523405 152.948095 55.600218 Z M 152.617327 66.738144 C 151.426565 66.746679 150.293687 67.23743 149.475037 68.099446 C 148.656388 68.961462 148.222256 70.117929 148.271871 71.304267 C 148.259467 72.520477 148.743214 73.685479 149.607344 74.534692 C 150.421859 75.388173 151.550603 75.87039 152.728961 75.87039 C 153.90732 75.87039 155.031929 75.388173 155.846444 74.534692 C 156.710574 73.685479 157.194321 72.520477 157.181918 71.304267 C 157.186052 70.113661 156.747785 68.965729 155.958078 68.073842 C 155.052602 67.220361 153.857705 66.746679 152.617327 66.738144 Z M 152.617327 66.738144 " transform="matrix(0.944773,0,0,0.915369,14.635536,5.320125)"/>
<path style="fill-rule:nonzero;fill:rgb(0%,68.235294%,93.72549%);fill-opacity:1;stroke-width:11;stroke-linecap:round;stroke-linejoin:round;stroke:rgb(100%,100%,100%);stroke-opacity:1;stroke-miterlimit:10;" d="M 185.984622 55.926076 L 185.984622 67.955889 C 185.352029 67.550486 184.620206 67.320046 183.86771 67.285907 C 181.866568 67.285907 180.750228 68.847777 180.750228 71.967249 L 180.750228 86.220381 L 169.500002 86.220381 L 169.500002 69.961569 C 169.500002 65.617352 170.723841 62.160754 173.06402 59.604579 C 175.507564 56.992927 178.959949 55.571881 182.532237 55.704171 C 183.685788 55.627358 184.847609 55.699903 185.984622 55.926076 Z M 185.984622 55.926076 " transform="matrix(0.944773,0,0,0.915369,18.150091,5.326532)"/>
<path style="fill-rule:nonzero;fill:rgb(0%,68.235294%,93.72549%);fill-opacity:1;stroke-width:11;stroke-linecap:round;stroke-linejoin:round;stroke:rgb(100%,100%,100%);stroke-opacity:1;stroke-miterlimit:10;" d="M 39.448931 48.898528 C 30.53475 48.907063 23.307482 56.131779 23.299213 65.050654 C 23.299213 68.946794 24.725648 72.714912 27.309768 75.62955 L 27.421402 75.740502 L 28.756875 77.080467 L 39.448931 87.770316 L 50.029353 77.19142 C 55.123171 72.783191 56.938257 65.673695 54.581539 59.366471 C 52.220687 53.05498 46.184182 48.881458 39.448931 48.898528 Z M 39.448931 69.283919 C 37.112886 69.283919 35.219243 67.389192 35.219243 65.050654 C 35.219243 62.712116 37.112886 60.817389 39.448931 60.817389 C 41.78911 60.817389 43.682754 62.712116 43.682754 65.050654 C 43.682754 67.389192 41.78911 69.283919 39.448931 69.283919 Z M 39.448931 69.283919 " transform="matrix(0.944773,0,0,0.915369,2.432852,4.622614)"/>
<path style=" stroke:none;fill-rule:nonzero;fill:rgb(0%,68.235294%,93.72549%);fill-opacity:1;" d="M 25.917969 5.949219 L 25.917969 16.660156 C 25.320312 16.417969 24.679688 16.28125 24.03125 16.25 C 23.195312 16.25 22.394531 16.578125 21.820312 17.167969 C 21.210938 17.761719 20.871094 18.570312 20.875 19.410156 C 20.953125 20.4375 21.316406 21.421875 21.929688 22.265625 L 22.769531 23.792969 C 24.257812 26.128906 25.09375 28.800781 25.191406 31.542969 C 25.242188 35.039062 23.792969 38.398438 21.191406 40.820312 C 18.554688 43.324219 14.980469 44.683594 11.289062 44.59375 C 9.363281 44.578125 7.460938 44.160156 5.714844 43.367188 L 5.714844 32.5625 C 6.570312 33.179688 7.597656 33.535156 8.664062 33.582031 C 9.578125 33.609375 10.472656 33.320312 11.1875 32.765625 C 11.839844 32.230469 12.226562 31.453125 12.242188 30.625 C 11.925781 29.324219 11.394531 28.085938 10.660156 26.953125 C 9.019531 24.261719 8.117188 21.210938 8.03125 18.085938 C 7.964844 14.636719 9.371094 11.3125 11.925781 8.910156 C 14.367188 6.429688 17.75 5.027344 21.289062 5.035156 C 22.867188 5.132812 24.425781 5.441406 25.917969 5.949219 Z M 25.917969 5.949219 "/>
<path style=" stroke:none;fill-rule:nonzero;fill:rgb(0%,68.235294%,93.72549%);fill-opacity:1;" d="M 40.546875 6.054688 L 40.546875 16.65625 L 45.386719 16.65625 L 45.386719 27.566406 L 40.546875 27.566406 C 40.546875 29.808594 40.863281 31.234375 41.597656 32.050781 C 42.335938 32.867188 43.597656 33.277344 45.496094 33.277344 L 45.496094 44.183594 L 44.230469 44.183594 C 41.84375 44.214844 39.488281 43.652344 37.390625 42.554688 C 35.328125 41.519531 33.5625 40.011719 32.234375 38.171875 C 30.550781 35.824219 29.8125 32.664062 29.8125 28.6875 L 29.8125 6.054688 Z M 40.546875 6.054688 "/>
<path style=" stroke:none;fill-rule:nonzero;fill:rgb(0%,68.235294%,93.72549%);fill-opacity:1;" d="M 50.542969 16.65625 L 61.171875 16.65625 L 61.171875 32.152344 C 61.171875 33.683594 61.800781 34.5 63.171875 34.5 C 64.539062 34.5 65.167969 33.683594 65.167969 32.152344 L 65.167969 16.65625 L 75.796875 16.65625 L 75.796875 32.050781 C 75.863281 35.429688 74.539062 38.695312 72.113281 41.125 C 69.769531 43.535156 66.480469 44.867188 63.0625 44.796875 C 59.296875 44.898438 55.6875 43.320312 53.277344 40.515625 C 51.382812 38.269531 50.4375 35.210938 50.4375 31.234375 L 50.4375 16.65625 Z M 50.542969 16.65625 "/>
<path style=" stroke:none;fill-rule:nonzero;fill:rgb(0%,68.235294%,93.72549%);fill-opacity:1;" d="M 99.683594 6.054688 L 110.3125 6.054688 L 110.3125 28.992188 C 110.3125 33.175781 109.15625 36.640625 106.839844 39.289062 C 105.484375 40.886719 103.753906 42.148438 101.789062 42.960938 C 99.898438 43.886719 97.808594 44.375 95.6875 44.386719 C 91.675781 44.449219 87.804688 42.941406 84.953125 40.207031 C 82.078125 37.5625 80.507812 33.851562 80.636719 30.011719 C 80.621094 26.222656 82.175781 22.585938 84.953125 19.917969 C 87.613281 17.148438 91.359375 15.59375 95.265625 15.636719 C 95.894531 15.636719 96.84375 15.738281 98.105469 15.84375 L 98.105469 27.261719 C 97.386719 26.621094 96.449219 26.257812 95.472656 26.242188 C 94.394531 26.253906 93.367188 26.695312 92.636719 27.464844 C 91.851562 28.214844 91.429688 29.253906 91.480469 30.320312 C 91.492188 31.367188 91.949219 32.363281 92.742188 33.074219 C 93.515625 33.835938 94.585938 34.242188 95.691406 34.195312 C 98.425781 34.195312 99.792969 32.359375 99.792969 28.6875 L 99.792969 6.054688 Z M 99.683594 6.054688 "/>
<path style=" stroke:none;fill-rule:nonzero;fill:rgb(0%,68.235294%,93.72549%);fill-opacity:1;" d="M 143.878906 31.644531 L 127.675781 31.644531 C 127.453125 30.945312 127.3125 30.230469 127.253906 29.503906 C 127.277344 28.5625 127.453125 27.632812 127.78125 26.75 L 133.148438 26.75 C 132.726562 24.710938 131.566406 23.691406 129.570312 23.691406 C 128.265625 23.652344 127.03125 24.269531 126.308594 25.324219 C 125.4375 26.550781 124.996094 28.015625 125.042969 29.503906 C 124.964844 31.058594 125.40625 32.597656 126.308594 33.886719 C 127.003906 34.917969 128.191406 35.53125 129.464844 35.519531 C 130.660156 35.457031 131.773438 34.902344 132.515625 33.988281 L 138.617188 41.023438 C 135.9375 43.125 132.597656 44.277344 129.148438 44.289062 C 125.179688 44.402344 121.332031 42.929688 118.519531 40.210938 C 115.6875 37.535156 114.125 33.839844 114.207031 30.007812 C 114.125 26.179688 115.6875 22.488281 118.519531 19.8125 C 121.332031 17.085938 125.167969 15.578125 129.148438 15.636719 C 133.054688 15.542969 136.824219 17.019531 139.566406 19.714844 C 142.367188 22.359375 143.894531 26.019531 143.777344 29.808594 C 143.988281 30.398438 144.027344 31.035156 143.878906 31.644531 Z M 143.878906 31.644531 "/>
<path style=" stroke:none;fill-rule:nonzero;fill:rgb(0%,68.235294%,93.72549%);fill-opacity:1;" d="M 173.660156 43.777344 L 163.03125 43.777344 L 163.03125 28.28125 C 163.03125 26.648438 162.398438 25.933594 161.03125 25.933594 C 159.664062 25.933594 159.03125 26.75 159.03125 28.28125 L 159.03125 43.878906 L 148.300781 43.878906 L 148.300781 28.382812 C 148.234375 25 149.558594 21.738281 151.984375 19.308594 C 154.507812 16.855469 157.96875 15.527344 161.539062 15.644531 C 165.109375 15.757812 168.472656 17.308594 170.820312 19.917969 C 172.710938 22.160156 173.660156 25.21875 173.660156 29.195312 Z M 173.660156 43.777344 "/>
<path style=" stroke:none;fill-rule:nonzero;fill:rgb(0%,68.235294%,93.72549%);fill-opacity:1;" d="M 189.339844 6.054688 L 189.339844 16.65625 L 194.179688 16.65625 L 194.179688 27.566406 L 189.339844 27.566406 C 189.339844 29.808594 189.65625 31.234375 190.390625 32.050781 C 191.128906 32.867188 192.390625 33.273438 194.285156 33.273438 L 194.285156 44.183594 L 193.023438 44.183594 C 190.636719 44.214844 188.28125 43.652344 186.183594 42.554688 C 184.121094 41.519531 182.351562 40.011719 181.023438 38.171875 C 179.339844 35.824219 178.605469 32.664062 178.605469 28.6875 L 178.605469 6.054688 Z M 189.339844 6.054688 "/>
<path style=" stroke:none;fill-rule:nonzero;fill:rgb(0%,68.235294%,93.72549%);fill-opacity:1;" d="M 6.875 46.632812 L 18.449219 46.632812 L 18.449219 69.058594 C 18.449219 70.789062 18.765625 72.015625 19.289062 72.523438 C 19.921875 73.136719 20.972656 73.441406 22.761719 73.441406 L 23.394531 73.441406 L 23.394531 84.355469 L 20.34375 84.355469 C 16.132812 84.355469 12.871094 83.128906 10.449219 80.785156 C 8.136719 78.441406 6.875 75.078125 6.875 70.894531 Z M 6.875 46.632812 "/>
<path style=" stroke:none;fill-rule:nonzero;fill:rgb(0%,68.235294%,93.72549%);fill-opacity:1;" d="M 76.535156 71.710938 L 87.160156 71.304688 C 87 75.027344 85.339844 78.542969 82.53125 81.089844 C 79.835938 83.640625 76.199219 85.035156 72.429688 84.964844 C 68.449219 85.023438 64.613281 83.515625 61.804688 80.785156 C 58.980469 78.019531 57.425781 74.273438 57.488281 70.386719 C 57.449219 66.625 59.011719 63.011719 61.800781 60.394531 C 64.554688 57.703125 68.308594 56.195312 72.21875 56.214844 C 75.644531 56.171875 78.972656 57.332031 81.585938 59.476562 C 84.269531 61.570312 86.070312 64.546875 86.636719 67.839844 L 75.796875 68.25 C 74.988281 67.117188 73.640625 66.464844 72.21875 66.515625 C 71.117188 66.476562 70.050781 66.882812 69.273438 67.636719 C 68.507812 68.441406 68.09375 69.5 68.117188 70.59375 C 68.082031 71.738281 68.539062 72.84375 69.378906 73.652344 C 70.179688 74.445312 71.285156 74.886719 72.429688 74.875 C 74.535156 74.769531 75.796875 73.75 76.535156 71.710938 Z M 76.535156 71.710938 "/>
<path style=" stroke:none;fill-rule:nonzero;fill:rgb(0%,68.235294%,93.72549%);fill-opacity:1;" d="M 107.578125 74.054688 L 107.578125 84.761719 C 106.773438 84.875 105.964844 84.945312 105.15625 84.964844 C 101.152344 85.101562 97.265625 83.625 94.421875 80.886719 C 91.570312 78.183594 90.007812 74.453125 90.109375 70.585938 C 90.070312 66.761719 91.625 63.085938 94.421875 60.390625 C 97.167969 57.625 100.984375 56.109375 104.941406 56.214844 C 109.570312 56.214844 113.148438 57.539062 115.78125 60.089844 C 118.410156 62.742188 119.777344 66.207031 119.777344 70.792969 L 119.777344 84.355469 L 109.15625 84.355469 L 109.15625 71.609375 C 109.242188 70.367188 108.871094 69.140625 108.101562 68.144531 C 107.378906 67.289062 106.296875 66.804688 105.15625 66.816406 C 102.855469 66.871094 101.003906 68.667969 100.945312 70.894531 C 100.945312 71.953125 101.363281 72.976562 102.105469 73.75 C 102.828125 74.527344 103.875 74.9375 104.949219 74.871094 C 105.878906 74.804688 106.777344 74.523438 107.578125 74.054688 Z M 107.578125 74.054688 "/>
<path style=" stroke:none;fill-rule:nonzero;fill:rgb(0%,68.235294%,93.72549%);fill-opacity:1;" d="M 135.566406 46.632812 L 135.566406 57.234375 L 140.40625 57.234375 L 140.40625 68.144531 L 135.566406 68.144531 C 135.566406 70.386719 135.882812 71.8125 136.621094 72.628906 C 137.355469 73.441406 138.617188 73.851562 140.511719 73.851562 L 140.511719 84.761719 L 139.25 84.761719 C 136.863281 84.792969 134.507812 84.230469 132.410156 83.132812 C 130.351562 82.09375 128.582031 80.589844 127.253906 78.746094 C 125.570312 76.402344 124.832031 73.242188 124.832031 69.265625 L 124.832031 46.632812 Z M 135.566406 46.632812 "/>
<path style=" stroke:none;fill-rule:nonzero;fill:rgb(0%,68.235294%,93.72549%);fill-opacity:1;" d="M 159.136719 56.214844 C 167.273438 56.214844 173.871094 62.605469 173.871094 70.488281 C 173.917969 74.332031 172.320312 78.027344 169.449219 80.683594 C 166.667969 83.394531 162.875 84.902344 158.929688 84.867188 C 154.949219 84.90625 151.125 83.398438 148.300781 80.683594 C 145.429688 78.027344 143.832031 74.332031 143.878906 70.488281 C 143.789062 66.636719 145.398438 62.925781 148.300781 60.292969 C 151.222656 57.609375 155.113281 56.144531 159.136719 56.214844 Z M 158.824219 66.410156 C 157.699219 66.417969 156.628906 66.867188 155.855469 67.65625 C 155.082031 68.445312 154.671875 69.503906 154.71875 70.589844 C 154.707031 71.703125 155.164062 72.769531 155.980469 73.546875 C 156.75 74.328125 157.816406 74.769531 158.929688 74.769531 C 160.042969 74.769531 161.105469 74.328125 161.875 73.546875 C 162.691406 72.769531 163.148438 71.703125 163.136719 70.589844 C 163.140625 69.5 162.726562 68.449219 161.980469 67.632812 C 161.125 66.851562 159.996094 66.417969 158.824219 66.410156 Z M 158.824219 66.410156 "/>
<path style=" stroke:none;fill-rule:nonzero;fill:rgb(0%,68.235294%,93.72549%);fill-opacity:1;" d="M 193.863281 56.519531 L 193.863281 67.53125 C 193.265625 67.160156 192.574219 66.949219 191.863281 66.917969 C 189.972656 66.917969 188.917969 68.347656 188.917969 71.203125 L 188.917969 84.25 L 178.289062 84.25 L 178.289062 69.367188 C 178.289062 65.390625 179.445312 62.226562 181.65625 59.886719 C 183.964844 57.496094 187.226562 56.195312 190.601562 56.316406 C 191.691406 56.246094 192.789062 56.3125 193.863281 56.519531 Z M 193.863281 56.519531 "/>
<path style=" stroke:none;fill-rule:nonzero;fill:rgb(0%,68.235294%,93.72549%);fill-opacity:1;" d="M 39.703125 49.382812 C 31.28125 49.390625 24.453125 56.003906 24.445312 64.167969 C 24.445312 67.734375 25.792969 71.183594 28.234375 73.851562 L 28.339844 73.953125 L 29.601562 75.179688 L 39.703125 84.964844 L 49.699219 75.28125 C 54.511719 71.246094 56.226562 64.738281 54 58.964844 C 51.769531 53.1875 46.066406 49.367188 39.703125 49.382812 Z M 39.703125 68.042969 C 37.496094 68.042969 35.707031 66.308594 35.707031 64.167969 C 35.707031 62.027344 37.496094 60.292969 39.703125 60.292969 C 41.914062 60.292969 43.703125 62.027344 43.703125 64.167969 C 43.703125 66.308594 41.914062 68.042969 39.703125 68.042969 Z M 39.703125 68.042969 "/>
</g>
</svg>
