<svg xmlns="http://www.w3.org/2000/svg" viewBox="0 0 19.9 28.086"><defs><style>.a{fill:#fff;}</style></defs><path class="a" d="M155.846,108.323a9.265,9.265,0,0,1,6.916-2.823,9.639,9.639,0,0,1,9.738,9.738,12.027,12.027,0,0,1-.988,4.657,32.649,32.649,0,0,1-2.54,4.94c-.988,1.552-1.976,2.964-2.823,4.375-.988,1.411-1.694,2.4-2.4,3.246l-1.129,1.129c-.282-.282-.565-.706-1.129-1.27-.423-.565-1.27-1.552-2.4-3.1s-2.117-2.964-2.964-4.375a38.021,38.021,0,0,1-2.4-4.8,13.738,13.738,0,0,1-1.129-4.8A11.351,11.351,0,0,1,155.846,108.323Zm4.516,9.456a3.76,3.76,0,1,0-.988-2.54A3.4,3.4,0,0,0,160.362,117.779Z" transform="translate(-152.6 -105.5)"/></svg>